<?xml version="1.0" encoding="utf-8"?>
<!-- Generator: Adobe Illustrator 27.5.0, SVG Export Plug-In . SVG Version: 6.00 Build 0)  -->
<svg version="1.1" id="Layer_1" xmlns:xodm="http://www.corel.com/coreldraw/odm/2003"
	 xmlns="http://www.w3.org/2000/svg" xmlns:xlink="http://www.w3.org/1999/xlink" x="0px" y="0px" viewBox="0 0 6000 9000"
	 style="enable-background:new 0 0 6000 9000;" xml:space="preserve">
<g id="Layer_x5F_1">
	<g id="_2785836533584">
		<rect style="fill:#FFFFFF;" width="6000" height="9000"/>
		<path style="fill:#339966;" d="M0,0v5984.26c1927.07-171.42,2724.01-1635.88,1557.27-2182.01
			C265.61,3197.64,73.74,1940.43,367.29,1405.13C531.53,1105.64,787.54,514.31,739.41,0L0,0L0,0z"/>
		<path style="fill:#339966;" d="M3332.68,5845.4c-2648.56-20.37-78.64,2142.39,2201.9,2961.959
			c169.45,60.9,325.03,125.4,465.42,192.64v-975.03c-2113.58-908.58-893.95-1418.55,0-1639.1v-3628.71
			c-1184.59-1694.24-1059.23-2550.65,0-2681.03v-76.13H4122.08c-1252.04,387.95-1484.63,868.63-192.25,2362.94
			c1730.17,2000.52,2051.4,3502.84-597.15,3482.46L3332.68,5845.4z"/>
		<path style="fill:#339966;" d="M1016.22,7801.54C1173.54,6972.01,878.89,6694.9,0,7080.42V9000h3815.52
			C3231.29,7815.04,847.1,8693.24,1016.22,7801.54z"/>
	</g>
</g>
</svg>
