<?xml version="1.0" encoding="utf-8"?>
<!-- Generator: Adobe Illustrator 27.5.0, SVG Export Plug-In . SVG Version: 6.00 Build 0)  -->
<svg version="1.1" id="Layer_1" xmlns:xodm="http://www.corel.com/coreldraw/odm/2003"
	 xmlns="http://www.w3.org/2000/svg" xmlns:xlink="http://www.w3.org/1999/xlink" x="0px" y="0px" viewBox="0 0 6000 9000"
	 style="enable-background:new 0 0 6000 9000;" xml:space="preserve">
<g id="Layer_x5F_1">
	<g id="_2785838600144">
		<rect style="fill:#FFFFFF;" width="6000" height="9000"/>
		<path style="fill:#339966;" d="M4448.97,9000c124.47-694.68-169.2-1646.76-873.91-2488.01
			c-1435.65-1713.82-1795.36-2889.5-444.7-2990.16C5802.271,3322.71,5199.45,1180.21,3680.38,0H721.07
			c1669.36,1502.43,1296.09,2367.95-43.47,2367.95c-278.85,0-503.94,35.8-677.6,104.58v1837.16
			c195.61,318.29,453.79,670.25,771.9,1051.98C2101.25,6956.891,1740.84,8275.87,0,7959.91V9000H4448.97L4448.97,9000z"/>
		<path style="fill:#339966;" d="M0,2085c2301.31,58.65,1592.81-1579.17,0-1579.17V2085z"/>
		<path style="fill:#339966;" d="M0,7388.04c1620.19,235.63,956.33-1073.54,0-2184.88V7388.04z"/>
		<path style="fill:#339966;" d="M5051.75,0c697.99,1846.21,1138.31,3232.76-692.43,4057.77
			c-1881.96,848.1,206.91,2307.9,1640.68,3625.06V0H5051.75z"/>
	</g>
</g>
</svg>
